<svg height="512pt" viewBox="0 0 512 512" width="512pt" xmlns="http://www.w3.org/2000/svg"><path d="m511.539062 255.769531c0 141.257813-114.511718 255.769531-255.769531 255.769531-141.257812 0-255.769531-114.511718-255.769531-255.769531 0-141.257812 114.511719-255.769531 255.769531-255.769531 141.257813 0 255.769531 114.511719 255.769531 255.769531zm0 0" fill="#b5e237"/><path d="m511.539062 255.769531c0 141.253907-114.515624 255.769531-255.769531 255.769531-141.253906 0-255.769531-114.515624-255.769531-255.769531 0-46.179687 12.238281-89.488281 33.648438-126.886719 44.082031 77 127.046874 128.886719 222.121093 128.886719s178.050781-51.886719 222.121094-128.886719c21.410156 37.398438 33.648437 80.707032 33.648437 126.886719zm0 0" fill="#95d600"/><path d="m480.828125 377.359375v.011719c-43.253906 79.898437-127.824219 134.167968-225.058594 134.167968-97.230469 0-181.804687-54.269531-225.058593-134.167968v-.011719zm0 0" fill="#85af12"/><path d="m93.609375 321.167969v29.714843c0 88.84375 72.273437 161.117188 161.117187 161.117188 88.835938 0 161.117188-72.273438 161.117188-161.117188v-29.714843zm0 0" fill="#dd1265"/><path d="m415.84375 321.167969v29.714843c0 88.84375-72.28125 161.117188-161.117188 161.117188v-190.832031zm0 0" fill="#ba0d5c"/><path d="m392.894531 321.167969c0 76.304687-61.859375 138.164062-138.167969 138.164062-76.304687 0-138.164062-61.859375-138.164062-138.164062 0-76.308594 61.859375-138.164063 138.164062-138.164063 76.308594 0 138.167969 61.855469 138.167969 138.164063zm0 0" fill="#fff"/><path d="m415.84375 321.167969c0 88.84375-72.28125 161.117187-161.117188 161.117187v-322.234375c88.835938 0 161.117188 72.273438 161.117188 161.117188zm0 0" fill="#d0f6ff"/><path d="m254.726562 160.050781c-88.84375 0-161.117187 72.273438-161.117187 161.117188s72.273437 161.117187 161.117187 161.117187c88.835938 0 161.117188-72.273437 161.117188-161.117187s-72.28125-161.117188-161.117188-161.117188zm0 276.332031c-63.527343 0-115.214843-51.6875-115.214843-115.214843 0-63.53125 51.6875-115.214844 115.214843-115.214844 63.53125 0 115.214844 51.683594 115.214844 115.214844 0 63.527343-51.683594 115.214843-115.214844 115.214843zm0 0" fill="#ff3445"/><path d="m312.3125 321.167969c0 31.800781-25.78125 57.585937-57.585938 57.585937-31.800781 0-57.582031-25.785156-57.582031-57.585937 0-31.804688 25.78125-57.585938 57.582031-57.585938 31.804688 0 57.585938 25.78125 57.585938 57.585938zm0 0" fill="#ff3445"/><g fill="#dd1265"><path d="m415.84375 321.167969c0 88.84375-72.28125 161.117187-161.117188 161.117187v-45.902344c63.53125 0 115.214844-51.6875 115.214844-115.214843 0-63.53125-51.6875-115.214844-115.214844-115.214844v-45.902344c88.835938 0 161.117188 72.273438 161.117188 161.117188zm0 0"/><path d="m312.3125 321.167969c0 31.800781-25.78125 57.585937-57.585938 57.585937v-115.171875c31.804688 0 57.585938 25.78125 57.585938 57.585938zm0 0"/><path d="m289.160156 321.167969c0 19.015625-15.414062 34.433593-34.433594 34.433593-19.015624 0-34.433593-15.417968-34.433593-34.433593s15.417969-34.433594 34.433593-34.433594c19.019532 0 34.433594 15.417969 34.433594 34.433594zm0 0"/></g><path d="m289.160156 321.167969c0 19.015625-15.414062 34.433593-34.429687 34.433593v-68.867187c19.015625 0 34.429687 15.417969 34.429687 34.433594zm0 0" fill="#ba0d5c"/><path d="m406.742188 94.640625v74.515625l-74.554688 74.550781v-74.515625l37.28125-37.277344zm0 0" fill="#65b2ff"/><path d="m406.742188 94.640625v74.515625l-37.273438 37.269531v-74.511719zm0 0" fill="#0f9be8"/><path d="m481.253906 169.15625-74.550781 74.550781h-74.515625l74.554688-74.550781zm0 0" fill="#0f9be8"/><path d="m481.253906 169.15625-38.578125 38.578125h-73.207031v-1.308594l37.273438-37.269531zm0 0" fill="#0066e8"/><path d="m406.742188 190.789062-141.195313 141.195313c-2.984375 2.992187-6.902344 4.484375-10.816406 4.484375-3.917969 0-7.835938-1.492188-10.820313-4.484375-5.972656-5.972656-5.972656-15.660156 0-21.636719l141.195313-141.195312c5.976562-5.972656 15.660156-5.972656 21.636719 0 5.972656 5.976562 5.972656 15.664062 0 21.636718zm0 0" fill="#323b5a"/><path d="m406.742188 190.789062-141.195313 141.195313c-2.984375 2.992187-6.902344 4.484375-10.816406 4.484375-3.917969 0-7.835938-1.492188-10.820313-4.484375l162.832032-162.832031c5.972656 5.976562 5.972656 15.664062 0 21.636718zm0 0" fill="#20273a"/></svg>