<svg height="512pt" viewBox="0 0 512 512" width="512pt" xmlns="http://www.w3.org/2000/svg"><path d="m512 256c0 141.386719-114.613281 256-256 256s-256-114.613281-256-256 114.613281-256 256-256 256 114.613281 256 256zm0 0" fill="#b5e237"/><path d="m512 256c0 141.378906-114.621094 256-256 256s-256-114.621094-256-256c0-46.21875 12.25-89.570312 33.679688-127 44.121093 77.070312 127.160156 129 222.320312 129s178.210938-51.929688 222.320312-129c21.429688 37.429688 33.679688 80.78125 33.679688 127zm0 0" fill="#95d600"/><path d="m481.261719 377.699219v.011719c-43.292969 79.96875-127.941407 134.289062-225.261719 134.289062s-181.96875-54.320312-225.261719-134.289062v-.011719zm0 0" fill="#85af12"/><path d="m193.390625 167.390625-1.40625-1.40625c-15.171875-15.171875-40.511719-12.292969-51.898437 5.898437l-104.980469 167.742188 8.101562 27.710938 114.964844-192.691407c1.734375-2.90625 5.734375-3.402343 8.128906-1.011719l10.699219 10.699219c4.652344 4.65625 12.234375 4.601563 16.820312-.15625 4.503907-4.671875 4.160157-12.195312-.429687-16.785156zm0 0" fill="#474f6f"/><path d="m318.066406 167.390625 1.40625-1.40625c15.171875-15.171875 40.511719-12.292969 51.898438 5.898437l104.980468 167.742188-8.101562 27.710938-114.964844-192.691407c-1.734375-2.90625-5.734375-3.402343-8.128906-1.011719l-10.699219 10.699219c-4.65625 4.65625-12.234375 4.601563-16.820312-.15625-4.503907-4.671875-4.160157-12.195312.429687-16.785156zm0 0" fill="#323b5a"/><path d="m481.316406 350.976562c0 7.65625-5.128906 14.363282-12.523437 16.359376l-10.96875 2.96875-1.050781 8.535156c-4.085938 33.253906-30.53125 59.308594-63.835938 62.917968l-36.183594 3.914063c-38.339844 4.148437-73.164062-22.59375-79.050781-60.703125l-.253906-1.671875c-.757813-4.898437-3.242188-9.144531-6.773438-12.175781-3.535156-3.03125-8.109375-4.832032-13.058593-4.832032-.542969 0-1.085938.027344-1.621094.070313-9.195313.730469-16.792969 7.691406-18.21875 16.9375l-.253906 1.671875c-5.882813 38.109375-40.710938 64.851562-79.050782 60.703125l-36.183594-3.914063c-33.304687-3.609374-59.75-29.664062-63.835937-62.917968l-.933594-7.625-14.3125-3.878906c-3.695312-.996094-6.828125-3.175782-9.035156-6.054688-2.730469-3.570312-4.042969-8.222656-3.265625-13.066406 1.324219-8.257813 8.699219-14.1875 17.0625-14.1875h8.617188c3.472656-8.039063 10.859374-14.160156 20.113281-15.695313 21.097656-3.507812 42.773437-5.332031 64.871093-5.332031 27.582032 0 54.496094 2.835938 80.464844 8.253906 7.601563 1.578125 13.773438 6.316406 17.414063 12.582032 1.875 3.222656 4.550781 5.820312 7.691406 7.613281 2.683594 1.519531 5.707031 2.460937 8.855469 2.707031.535156.042969 1.078125.0625 1.621094.0625 7.464843 0 14.417968-3.933594 18.167968-10.382812 3.632813-6.265626 9.808594-11.003907 17.40625-12.582032 25.96875-5.417968 52.890625-8.253906 80.464844-8.253906 22.097656 0 43.773438 1.824219 64.878906 5.332031 9.246094 1.535157 16.632813 7.65625 20.105469 15.699219h5.730469c4.675781 0 8.914062 1.902344 11.976562 4.964844 3.074219 3.066406 4.96875 7.300781 4.96875 11.980468zm0 0" fill="#474f6f"/><path d="m481.316406 350.976562c0 7.65625-5.128906 14.363282-12.523437 16.359376l-10.96875 2.96875-1.050781 8.535156c-4.085938 33.253906-30.53125 59.308594-63.835938 62.917968l-36.183594 3.914063c-38.339844 4.148437-73.164062-22.59375-79.050781-60.703125l-.253906-1.671875c-.757813-4.898437-3.242188-9.144531-6.773438-12.175781-3.535156-3.03125-8.109375-4.832032-13.058593-4.832032-.542969 0-1.085938.027344-1.621094.070313v-22.203125c.535156.042969 1.078125.0625 1.621094.0625 7.460937 0 14.414062-3.933594 18.167968-10.382812 3.632813-6.265626 9.804688-11.003907 17.402344-12.582032 25.972656-5.417968 52.890625-8.253906 80.46875-8.253906 22.097656 0 43.773438 1.824219 64.878906 5.332031 9.242188 1.539063 16.628906 7.660157 20.101563 15.699219h5.730469c4.679687 0 8.914062 1.902344 11.980468 4.964844 3.074219 3.066406 4.96875 7.300781 4.96875 11.980468zm0 0" fill="#323b5a"/><path d="m213.027344 360.179688-3.5625 23.074218c-4.027344 26.0625-27.847656 44.351563-54.066406 41.515625l-6.664063-.722656-18.082031-1.953125c-22.777344-2.472656-40.871094-20.292969-43.664063-43.035156l-2.613281-21.277344c-1.191406-9.667969 5.484375-18.507812 15.09375-20.101562 14.433594-2.402344 29.257812-3.652344 44.367188-3.652344 1.640624 0 3.269531.019531 4.898437.050781 17.160156.296875 33.910156 2.21875 50.132813 5.597656 9.425781 1.960938 15.628906 10.992188 14.160156 20.503907zm0 0" fill="#fff"/><path d="m430.859375 357.785156-2.621094 21.273438c-2.792969 22.746094-20.875 40.566406-43.65625 43.035156l-18.089843 1.953125-6.65625.722656c-26.226563 2.835938-50.039063-15.453125-54.0625-41.515625l-3.566407-23.074218c-1.46875-9.507813 4.734375-18.542969 14.152344-20.503907 16.214844-3.378906 32.984375-5.296875 50.132813-5.59375 1.628906-.035156 3.269531-.050781 4.90625-.050781 15.113281 0 29.933593 1.246094 44.367187 3.648438 9.609375 1.597656 16.285156 10.433593 15.09375 20.105468zm0 0" fill="#fff"/><path d="m213.027344 360.179688-3.5625 23.074218c-4.027344 26.0625-27.847656 44.351563-54.066406 41.515625l-6.664063-.722656v-89.96875c17.160156.300781 33.910156 2.21875 50.132813 5.597656 9.425781 1.960938 15.628906 10.992188 14.160156 20.503907zm0 0" fill="#d0f6ff"/><path d="m430.859375 357.785156-2.621094 21.273438c-2.792969 22.746094-20.875 40.566406-43.65625 43.035156l-18.089843 1.953125v-89.96875c1.628906-.03125 3.269531-.050781 4.90625-.050781 15.113281 0 29.933593 1.25 44.367187 3.652344 9.609375 1.597656 16.285156 10.433593 15.09375 20.105468zm0 0" fill="#d0f6ff"/><path d="m428.019531 445.570312c-13.96875 12.691407-29.347656 23.851563-45.871093 33.21875-36.867188 20.941407-79.449219 32.972657-124.808594 33.199219-.449219.011719-.890625.011719-1.339844.011719-45.871094 0-88.929688-12.070312-126.160156-33.210938-16.519532-9.367187-31.898438-20.527343-45.859375-33.21875zm0 0" fill="#ed771b"/><path d="m428.019531 445.570312c-45.140625 41-104.988281 66.089844-170.679687 66.417969-.449219.011719-.890625.011719-1.339844.011719v-66.429688zm0 0" fill="#c55835"/></svg>