<svg height="512pt" viewBox="0 0 512 512" width="512pt" xmlns="http://www.w3.org/2000/svg"><path d="m512 256c0 141.386719-114.613281 256-256 256s-256-114.613281-256-256 114.613281-256 256-256 256 114.613281 256 256zm0 0" fill="#68fcdf"/><path d="m512 256c0 141.378906-114.621094 256-256 256s-256-114.621094-256-256c0-46.21875 12.25-89.570312 33.679688-127 44.121093 77.070312 127.160156 129 222.320312 129s178.210938-51.929688 222.320312-129c21.429688 37.429688 33.679688 80.78125 33.679688 127zm0 0" fill="#10e2c4"/><path d="m481.261719 377.699219v.011719c-43.292969 79.96875-127.941407 134.289062-225.261719 134.289062s-181.96875-54.320312-225.261719-134.289062v-.011719zm0 0" fill="#1aba9f"/><g fill="#fff"><path d="m92.363281 197.742188h-1.523437c-6.753906 0-12.230469-5.472657-12.230469-12.226563v-1.523437h-8.714844v1.523437c0 6.753906-5.472656 12.226563-12.226562 12.226563h-1.523438v8.71875h1.523438c6.753906 0 12.226562 5.472656 12.226562 12.226562v1.523438h8.714844v-1.523438c0-6.753906 5.476563-12.226562 12.230469-12.226562h1.523437zm0 0"/><path d="m157.015625 68.613281h-1.523437c-6.753907 0-12.226563-5.472656-12.226563-12.226562v-1.523438h-8.714844v1.523438c0 6.753906-5.476562 12.226562-12.226562 12.226562h-1.527344v8.714844h1.527344c6.75 0 12.226562 5.476563 12.226562 12.230469v1.523437h8.714844v-1.523437c0-6.753906 5.472656-12.230469 12.226563-12.230469h1.523437zm0 0"/><path d="m391.199219 68.613281h-1.523438c-6.75 0-12.226562-5.472656-12.226562-12.226562v-1.523438h-8.714844v1.523438c0 6.753906-5.472656 12.226562-12.226563 12.226562h-1.527343v8.714844h1.527343c6.753907 0 12.226563 5.476563 12.226563 12.230469v1.523437h8.714844v-1.523437c0-6.753906 5.476562-12.230469 12.226562-12.230469h1.523438zm0 0"/><path d="m455.855469 197.742188h-1.523438c-6.753906 0-12.226562-5.472657-12.226562-12.226563v-1.523437h-8.714844v1.523437c0 6.753906-5.476563 12.226563-12.230469 12.226563h-1.523437v8.71875h1.523437c6.753906 0 12.230469 5.472656 12.230469 12.226562v1.523438h8.714844v-1.523438c0-6.753906 5.472656-12.226562 12.226562-12.226562h1.523438zm0 0"/></g><path d="m272.371094 511.480469c-5.300782.339843-10.652344.507812-16.03125.519531h-.371094c-5.257812 0-10.480469-.160156-15.660156-.480469l-.347656-154.628906h32.058593zm0 0" fill="#323b5a"/><path d="m272.371094 511.480469c-5.300782.339843-10.652344.507812-16.03125.519531l-.351563-155.109375h16.03125zm0 0" fill="#20273a"/><path d="m408.007812 250.808594c-.011718 82.273437-67.109374 149.078125-150.226562 150.015625-.59375.015625-1.195312.015625-1.800781.015625-83.945313-.011719-151.996094-67.203125-151.988281-150.070313.011718-82.867187 68.082031-150.042969 152.027343-150.03125.601563 0 1.207031 0 1.800781.015625 83.117188.960938 150.199219 67.78125 150.1875 150.054688zm0 0" fill="#474f6f"/><path d="m408.007812 250.808594c-.011718 82.273437-67.109374 149.078125-150.226562 150.015625-63.515625-21.035157-109.273438-80.273438-109.265625-150.050781.007813-69.777344 45.785156-129.003907 109.300781-150.019532 83.121094.960938 150.203125 67.78125 150.191406 150.054688zm0 0" fill="#323b5a"/><path d="m408.007812 250.808594c-.011718 82.867187-68.078124 150.042968-152.027343 150.03125l.039062-300.101563c83.949219.007813 152 67.203125 151.988281 150.070313zm0 0" fill="#20273a"/><path d="m363.484375 250.789062c0-58.597656-48.121094-106.101562-107.484375-106.101562s-107.484375 47.503906-107.484375 106.101562c0 58.597657 48.121094 106.101563 107.484375 106.101563s107.484375-47.503906 107.484375-106.101563zm0 0" fill="#d0f6ff"/><path d="m363.484375 250.800781c-.007813 58.601563-48.132813 106.097657-107.5 106.089844l.027344-212.203125c59.367187.007812 107.480469 47.515625 107.472656 106.113281zm0 0" fill="#8fc9f7"/><path d="m324.96875 250.789062c0-37.601562-30.878906-68.082031-68.96875-68.082031s-68.96875 30.480469-68.96875 68.082031c0 37.597657 30.878906 68.078126 68.96875 68.078126s68.96875-30.480469 68.96875-68.078126zm0 0" fill="#fff"/><path d="m324.96875 250.796875c-.003906 37.601563-30.886719 68.078125-68.976562 68.070313l.015624-136.160157c38.09375.003907 68.964844 30.488281 68.960938 68.089844zm0 0" fill="#d0f6ff"/><path d="m289.210938 436.96875-.011719 72.890625c-10.859375 1.410156-21.949219 2.140625-33.199219 2.140625h-.03125c-11.269531 0-22.359375-.730469-33.238281-2.148438l.007812-72.890624 33.242188.007812zm0 0" fill="#ffd112"/><path d="m289.210938 436.96875-.011719 72.890625c-10.859375 1.410156-21.949219 2.140625-33.199219 2.140625h-.03125l.011719-75.03125v-.007812zm0 0" fill="#ff9f00"/><path d="m337.441406 251.046875c0 44.980469-36.464844 81.441406-81.441406 81.441406h-.34375c-44.824219-.1875-81.097656-36.574219-81.097656-81.441406 0-44.863281 36.273437-81.25 81.097656-81.4375h.34375c44.980469 0 81.441406 36.460937 81.441406 81.4375zm0 0" fill="#65b2ff"/><path d="m337.441406 251.046875c0 44.980469-36.464844 81.441406-81.441406 81.441406h-.34375c-27.535156-16.671875-45.933594-46.90625-45.933594-81.441406s18.398438-64.769531 45.933594-81.4375h.34375c44.980469 0 81.441406 36.460937 81.441406 81.4375zm0 0" fill="#0f9be8"/><path d="m337.441406 251.046875c0 44.980469-36.464844 81.441406-81.441406 81.441406h-.003906v-162.878906h.003906c44.980469 0 81.441406 36.460937 81.441406 81.4375zm0 0" fill="#0066e8"/><path d="m337.003906 251.046875c-20.167968 21.753906-48.996094 35.371094-81 35.371094-32.007812 0-60.832031-13.617188-81.003906-35.371094 20.171875-21.753906 48.996094-35.367187 81.003906-35.367187 32 0 60.828125 13.613281 81 35.367187zm0 0" fill="#fff"/><path d="m337.003906 251.046875c-20.167968 21.753906-48.996094 35.371094-81 35.371094v-70.738281c32 0 60.828125 13.613281 81 35.367187zm0 0" fill="#d0f6ff"/><path d="m291.371094 251.046875c0 19.535156-15.835938 35.371094-35.367188 35.371094-19.535156 0-35.371094-15.835938-35.371094-35.371094 0-19.53125 15.835938-35.367187 35.371094-35.367187 19.53125 0 35.367188 15.835937 35.367188 35.367187zm0 0" fill="#474f6f"/><path d="m291.371094 251.046875c0 19.535156-15.835938 35.371094-35.367188 35.371094v-70.738281c19.53125 0 35.367188 15.835937 35.367188 35.367187zm0 0" fill="#323b5a"/><path d="m270.78125 251.046875c0 8.164063-6.617188 14.78125-14.777344 14.78125-8.164062 0-14.78125-6.617187-14.78125-14.78125 0-8.160156 6.617188-14.777344 14.78125-14.777344 8.160156 0 14.777344 6.617188 14.777344 14.777344zm0 0" fill="#323b5a"/><path d="m270.78125 251.046875c0 8.164063-6.621094 14.78125-14.777344 14.78125v-29.558594c8.15625 0 14.777344 6.617188 14.777344 14.777344zm0 0" fill="#20273a"/></svg>